<svg viewBox="0 0 1200 620" xmlns="http://www.w3.org/2000/svg" role="img" aria-labelledby="docs-title docs-desc"><title id="docs-title">NNx documentation projection and deployment</title><desc id="docs-desc">A manifest, canonical repository Markdown, and generated SVG assets feed a deterministic builder which creates MkDocs configuration plus site and wiki trees before verification and publication.</desc><defs><pattern id="g" width="40" height="40" patternUnits="userSpaceOnUse"><path d="M40 0H0V40" fill="none" stroke="#1e293b" stroke-width=".5"/></pattern><marker id="a" markerWidth="10" markerHeight="7" refX="9" refY="3.5" orient="auto"><polygon points="0 0,10 3.5,0 7" fill="#64748b"/></marker></defs><rect width="1200" height="620" fill="#020617"/><rect width="1200" height="620" fill="url(#g)"/>
<g stroke="#64748b" marker-end="url(#a)" fill="none"><path d="M250 175H465"/><path d="M250 300H465"/><path d="M250 425H465"/><path d="M735 300H930V150H985"/><path d="M735 300H985"/><path d="M735 300H930V450H985"/></g>
<g font-family="ui-monospace,monospace" text-anchor="middle"><g fill="#0f172a" stroke="#94a3b8"><rect x="55" y="125" width="195" height="100" rx="6"/><rect x="55" y="250" width="195" height="100" rx="6"/><rect x="55" y="375" width="195" height="100" rx="6"/></g><g fill="#0f172a" stroke="#34d399"><rect x="465" y="215" width="270" height="170" rx="6"/></g><g fill="#0f172a" stroke="#a78bfa"><rect x="985" y="100" width="170" height="100" rx="6"/><rect x="985" y="250" width="170" height="100" rx="6"/><rect x="985" y="400" width="170" height="100" rx="6"/></g>
<g fill="#fff" font-size="12" font-weight="600"><text x="152" y="160">manifest.yaml</text><text x="152" y="285">Canonical Markdown</text><text x="152" y="410">Generated SVG assets</text><text x="600" y="260">scripts.docs.build_docs</text><text x="1070" y="135">MkDocs config</text><text x="1070" y="285">GitHub Pages</text><text x="1070" y="435">GitHub wiki</text></g><g fill="#94a3b8" font-size="9"><text x="152" y="180">hierarchy + numbers</text><text x="152" y="305">repository source surface</text><text x="152" y="430">extractor output</text><text x="600" y="285">rewrite links and copy assets</text><text x="600" y="305">render site/wiki/config</text><text x="600" y="325">content-hash determinism</text><text x="1070" y="155">generated mkdocs.yml</text><text x="1070" y="305">generated/site</text><text x="1070" y="455">generated/wiki</text></g></g>
<rect x="445" y="535" width="310" height="45" rx="6" fill="rgba(136,19,55,.4)" stroke="#fb7185" stroke-dasharray="4 4"/><text x="600" y="562" fill="#fb7185" text-anchor="middle" font-family="ui-monospace,monospace" font-size="10">CI: strict build + self-containment + parity</text></svg>
